<?xml version="1.0" standalone="no"?>
<!DOCTYPE svg PUBLIC "-//W3C//DTD SVG 20010904//EN"
 "http://www.w3.org/TR/2001/REC-SVG-20010904/DTD/svg10.dtd">
<svg version="1.0" xmlns="http://www.w3.org/2000/svg"
 width="125.000000pt" height="125.000000pt" viewBox="0 0 125.000000 125.000000"
 preserveAspectRatio="xMidYMid meet">
<metadata>
Created by potrace 1.11, written by Peter Selinger 2001-2013
</metadata>
<g transform="translate(0.000000,125.000000) scale(0.100000,-0.100000)"
fill="#000000" stroke="none">
<path d="M414 1152 c-16 -10 -34 -48 -34 -69 0 -18 -48 -73 -62 -73 -4 0 -4
16 -1 35 9 58 -14 40 -28 -21 -11 -48 -14 -53 -21 -33 -6 16 -12 19 -19 12 -8
-8 -8 -17 0 -32 9 -15 9 -26 1 -42 -18 -34 -7 -30 20 7 19 25 32 34 56 34 18
0 42 9 55 20 l24 20 -23 6 c-17 5 -20 9 -11 20 8 10 16 11 30 3 24 -12 59 -3
59 17 0 8 -11 15 -27 15 -24 2 -25 2 -5 6 21 4 32 23 13 23 -6 0 -11 13 -13
30 -2 19 -7 27 -14 22z"/>
<path d="M815 1140 c4 -12 1 -27 -5 -35 -6 -8 -9 -18 -6 -24 3 -5 -1 -12 -10
-15 -29 -11 -2 -28 37 -23 26 3 42 0 50 -9 9 -11 7 -14 -10 -14 -11 0 -21 -4
-21 -9 0 -16 43 -41 70 -41 17 0 39 -14 64 -40 21 -22 33 -40 28 -40 -5 0 -15
7 -22 15 -16 19 -40 19 -40 0 0 -8 18 -24 39 -35 50 -25 63 -43 26 -34 -21 5
-27 4 -23 -7 3 -8 13 -14 23 -14 20 0 59 -47 54 -64 -3 -7 -17 -2 -39 14 -35
26 -64 32 -75 15 -6 -10 41 -35 87 -44 18 -4 29 -16 37 -37 14 -42 6 -52 -29
-34 -36 18 -40 19 -40 2 0 -8 18 -21 40 -30 30 -11 40 -21 40 -37 0 -18 -4
-21 -24 -16 -14 3 -28 2 -31 -4 -6 -9 3 -14 41 -25 8 -3 9 -18 1 -56 -9 -43
-12 -49 -18 -31 -18 49 -44 13 -28 -40 12 -42 12 -58 -1 -58 -5 0 -10 9 -10
20 0 11 -7 20 -15 20 -17 0 -20 -16 -5 -25 14 -9 12 -57 -4 -78 -13 -16 -15
-14 -21 25 -9 50 -21 78 -36 78 -12 0 -8 -28 12 -97 12 -38 11 -44 -6 -63 -24
-26 -35 -25 -35 3 0 33 -16 55 -30 41 -9 -9 -8 -23 1 -54 11 -35 10 -43 -2
-50 -10 -7 -18 -2 -28 18 -18 35 -18 35 -30 27 -7 -4 -6 -17 3 -40 14 -33 14
-35 -12 -54 -20 -15 -23 -20 -10 -21 9 0 20 5 24 11 4 7 21 9 40 6 36 -6 54 6
29 20 -27 15 16 44 69 47 26 1 54 10 62 18 14 14 12 16 -22 22 -37 7 -37 8
-17 27 11 11 44 26 74 34 34 9 63 24 78 42 31 36 16 39 -49 9 -30 -14 -56 -23
-58 -21 -7 6 33 57 72 93 50 46 50 68 -1 35 -25 -17 -26 -17 -18 7 10 33 10
33 42 34 16 1 27 6 25 11 -2 6 -14 9 -28 8 -34 -3 -31 21 8 48 33 24 24 38
-11 19 -19 -10 -21 -8 -21 21 0 19 10 43 25 61 14 16 25 41 25 56 l0 26 -30
-29 -30 -29 0 43 c0 23 9 60 21 82 21 42 22 90 3 96 -7 2 -17 -17 -24 -47 -7
-27 -15 -52 -20 -55 -10 -6 -30 61 -33 114 -2 53 -27 70 -27 19 -1 -28 -2 -30
-11 -14 -8 13 -8 25 -1 41 10 22 7 35 -9 35 -4 0 -9 -12 -11 -27 -3 -22 -7
-15 -17 29 -15 68 -31 84 -31 32 l0 -38 -29 28 c-16 15 -32 42 -35 59 -6 31
-32 67 -48 67 -5 0 -6 -9 -3 -20z"/>
<path d="M209 963 c-4 -86 -8 -113 -22 -139 -14 -24 -16 -26 -17 -8 0 11 -7
42 -16 68 -12 34 -19 44 -25 35 -16 -25 -10 -85 11 -112 20 -25 28 -97 12 -97
-5 0 -17 9 -27 20 -41 45 -49 3 -10 -54 14 -20 25 -50 25 -67 0 -26 -2 -28
-20 -17 -34 21 -36 -2 -2 -28 40 -32 41 -44 1 -44 -20 0 -29 -4 -26 -12 2 -8
15 -12 30 -10 21 3 29 -2 37 -23 14 -37 13 -38 -20 -14 -51 38 -47 11 7 -44
28 -28 56 -62 62 -74 l12 -23 -33 19 c-18 11 -48 22 -66 26 l-34 7 16 -24 c18
-27 56 -48 87 -48 34 0 78 -29 79 -52 0 -5 -13 -8 -30 -8 -16 0 -30 -4 -30 -8
0 -13 48 -32 81 -32 30 0 79 -25 79 -41 0 -5 -7 -9 -15 -9 -8 0 -15 -5 -15
-10 0 -7 13 -8 34 -5 20 4 36 2 40 -4 4 -6 15 -11 24 -11 13 0 12 5 -8 19 -21
17 -23 22 -12 46 7 14 12 32 12 40 0 26 -21 16 -31 -15 -12 -32 -16 -35 -37
-22 -10 7 -10 15 -2 36 14 37 13 69 -2 64 -7 -3 -16 -19 -21 -38 l-8 -33 -27
26 -26 26 22 53 c26 62 27 78 8 78 -21 0 -30 -18 -36 -70 l-5 -45 -20 29 c-18
27 -18 30 -3 56 15 27 14 40 -3 40 -4 0 -12 -12 -18 -27 -9 -23 -10 -17 -5 33
6 62 -6 90 -24 58 -11 -20 -17 -11 -26 37 -6 31 -3 37 19 47 26 12 34 32 12
32 -7 0 -18 -5 -25 -12 -9 -9 -12 -6 -12 15 0 22 7 30 40 43 22 9 40 22 40 30
0 17 -8 17 -40 -1 -34 -20 -40 -19 -40 8 0 35 20 54 70 67 50 13 73 28 64 41
-9 16 -38 10 -77 -16 -35 -24 -37 -25 -37 -6 0 28 37 60 61 54 13 -4 19 0 19
11 0 18 -13 20 -40 6 -15 -8 -18 -7 -14 3 3 8 23 21 45 30 37 14 59 40 46 54
-4 3 -18 -2 -31 -11 -14 -9 -28 -16 -31 -16 -3 0 -5 20 -5 45 0 25 -4 45 -10
45 -5 0 -10 -8 -11 -17z"/>
<path d="M350 720 c0 -5 5 -10 10 -10 6 0 10 -35 10 -86 0 -71 -3 -89 -17
-100 -15 -11 -5 -13 70 -14 82 0 88 1 96 23 11 29 5 34 -17 14 -10 -10 -35
-17 -55 -17 -36 0 -37 1 -37 40 0 38 2 40 30 40 17 0 30 -4 30 -10 0 -5 5 -10
10 -10 6 0 10 14 10 30 0 17 -4 30 -10 30 -5 0 -10 -4 -10 -10 0 -5 -13 -10
-30 -10 -28 0 -30 2 -30 40 l0 40 40 0 c29 0 40 -4 40 -15 0 -8 5 -15 10 -15
6 0 10 11 10 25 0 25 -1 25 -80 25 -47 0 -80 -4 -80 -10z"/>
<path d="M740 720 c0 -5 5 -10 10 -10 15 0 13 -173 -2 -188 -9 -9 -2 -12 32
-12 34 0 41 3 32 12 -14 14 -16 88 -2 88 5 0 21 -22 35 -49 13 -27 34 -53 46
-56 22 -7 43 5 21 12 -7 3 -24 26 -37 53 -24 47 -24 48 -5 65 26 24 25 60 -2
79 -25 18 -128 22 -128 6z m105 -50 c0 -29 -4 -36 -22 -38 -21 -3 -23 1 -23
38 0 37 2 41 23 38 18 -2 22 -9 22 -38z"/>
<path d="M594 655 c-4 -8 -4 -21 -1 -29 3 -8 -1 -20 -9 -26 -18 -16 -18 -44 1
-60 12 -10 21 -10 41 -1 18 8 30 8 39 1 9 -7 16 -6 24 4 9 11 7 15 -10 19
l-22 6 21 35 c16 27 18 36 8 36 -8 0 -17 -12 -20 -26 -6 -21 -9 -24 -21 -14
-10 8 -12 18 -6 29 5 9 6 22 4 29 -6 17 -42 15 -49 -3z m36 -15 c0 -5 -4 -10
-10 -10 -5 0 -10 5 -10 10 0 6 5 10 10 10 6 0 10 -4 10 -10z m0 -55 c14 -16 6
-35 -16 -35 -8 0 -14 10 -14 25 0 28 12 32 30 10z"/>
</g>
</svg>
